<?xml version="1.0" standalone="no"?>
<!DOCTYPE svg PUBLIC "-//W3C//DTD SVG 20010904//EN"
 "http://www.w3.org/TR/2001/REC-SVG-20010904/DTD/svg10.dtd">
<svg version="1.0" xmlns="http://www.w3.org/2000/svg"
 width="1024.000000pt" height="710.000000pt" viewBox="0 0 1024.000000 710.000000"
 preserveAspectRatio="xMidYMid meet">

<g transform="translate(0.000000,710.000000) scale(0.100000,-0.100000)"
fill="#000000" stroke="none">
<path d="M6990 6341 c-67 -11 -119 -39 -113 -62 7 -24 -22 -52 -46 -44 -24 7
-43 -16 -38 -47 2 -12 2 -17 0 -10 -5 15 -23 6 -23 -11 0 -7 9 -18 21 -25 18
-11 24 -11 39 3 14 13 34 16 82 15 35 -2 79 -2 98 -1 29 2 32 4 15 11 -17 7
-17 9 -2 9 27 1 32 0 30 -10 -2 -5 10 -9 26 -9 21 0 31 -6 36 -22 l8 -23 4 23
c3 14 12 22 24 22 25 0 53 26 46 43 -3 8 6 12 26 13 26 1 28 0 14 -11 -9 -7
-17 -14 -17 -16 0 -3 68 -5 150 -6 91 -1 148 2 145 8 -4 5 3 9 14 9 12 0 21
-4 21 -9 0 -11 -36 -21 -77 -21 -18 0 -33 -5 -33 -11 0 -8 19 -10 65 -5 36 4
69 4 74 2 4 -3 5 -26 1 -51 -4 -25 -3 -45 2 -45 4 0 8 6 8 13 0 8 4 7 10 -3
16 -25 11 -40 -15 -52 -33 -15 -32 -30 1 -22 25 6 26 5 19 -27 -7 -34 -7 -34
10 -11 10 13 15 33 12 45 -3 12 -2 38 3 57 10 35 10 35 6 -7 -2 -24 0 -43 5
-43 9 0 14 52 10 109 -3 42 -18 74 -32 66 -5 -4 -10 1 -10 9 -1 9 -3 21 -4 26
-1 6 -3 15 -4 21 -1 8 -5 8 -13 1 -10 -7 -21 -3 -42 15 -23 19 -26 27 -15 33
11 7 9 10 -6 15 -11 4 -38 14 -60 23 -31 12 -85 16 -235 18 -107 1 -215 -1
-240 -5z m293 -8 c-46 -2 -120 -2 -165 0 -46 1 -9 3 82 3 91 0 128 -2 83 -3z
m157 -13 c0 -5 8 -10 18 -11 10 0 12 -3 5 -6 -7 -2 -23 3 -35 11 -18 13 -19
16 -5 16 9 0 17 -4 17 -10z m-440 -16 c0 -1 -19 -2 -42 -2 -29 0 -37 3 -24 8
18 6 66 2 66 -6z m367 8 c6 -4 -48 -6 -120 -4 -205 4 -228 8 -52 10 88 1 165
-2 172 -6z m-457 -102 c12 -8 11 -10 -5 -9 -11 1 -31 5 -45 9 -24 8 -24 8 5 9
17 0 37 -4 45 -9z m91 0 c6 0 8 -4 5 -8 -3 -5 -19 -7 -37 -4 -22 3 -27 7 -18
13 8 5 20 7 27 4 8 -3 18 -5 23 -5z m142 3 c-13 -2 -33 -2 -45 0 -13 2 -3 4
22 4 25 0 35 -2 23 -4z m217 3 c0 -2 -7 -6 -15 -10 -8 -3 -15 -1 -15 4 0 6 7
10 15 10 8 0 15 -2 15 -4z m155 -1 c-23 -8 -85 -10 -85 -3 0 4 21 8 48 7 26 0
43 -2 37 -4z m-202 -12 c-7 -2 -19 -2 -25 0 -7 3 -2 5 12 5 14 0 19 -2 13 -5z
m84 1 c-3 -3 -12 -4 -19 -1 -8 3 -5 6 6 6 11 1 17 -2 13 -5z m-297 -14 c0 -14
33 -13 48 2 9 9 12 9 12 1 0 -16 -35 -26 -60 -18 -21 7 -28 25 -10 25 6 0 10
-4 10 -10z m-227 -7 c-7 -2 -21 -2 -30 0 -10 3 -4 5 12 5 17 0 24 -2 18 -5z
m67 -3 c0 -5 -10 -10 -22 -10 -19 0 -20 2 -8 10 19 13 30 13 30 0z m660 0 c0
-5 -7 -10 -15 -10 -8 0 -15 5 -15 10 0 6 7 10 15 10 8 0 15 -4 15 -10z m35
-30 c3 -5 1 -10 -4 -10 -6 0 -11 5 -11 10 0 6 2 10 4 10 3 0 8 -4 11 -10z
m-28 -47 c-3 -10 -5 -4 -5 12 0 17 2 24 5 18 2 -7 2 -21 0 -30z"/>
<path d="M6841 6271 c-7 -5 -12 -14 -10 -20 3 -6 9 -7 18 -2 7 5 12 14 10 20
-3 6 -9 7 -18 2z"/>
<path d="M7545 6270 c3 -5 10 -10 16 -10 5 0 9 5 9 10 0 6 -7 10 -16 10 -8 0
-12 -4 -9 -10z"/>
<path d="M7233 6160 c41 -8 186 -4 195 5 3 3 -48 4 -114 4 -82 -1 -107 -4 -81
-9z"/>
<path d="M6756 6107 c-6 -33 21 -139 40 -156 4 -3 4 2 1 12 -4 11 -3 16 3 12
6 -3 10 -15 10 -25 0 -22 16 -36 22 -18 6 16 28 1 28 -19 0 -10 -6 -13 -17 -8
-30 11 -2 -11 47 -38 58 -31 75 -35 190 -42 52 -3 97 -9 100 -13 9 -12 88 -52
103 -52 8 0 20 -7 27 -15 8 -9 21 -13 36 -9 20 5 24 2 24 -15 0 -26 17 -28 25
-2 6 20 -10 72 -27 82 -10 7 14 16 105 39 47 13 58 24 35 33 -7 3 -1 6 14 6
29 1 46 16 26 24 -9 4 -7 6 3 6 21 1 34 18 43 53 5 22 3 25 -14 21 -11 -3 -20
-11 -20 -19 0 -15 -18 -29 -27 -20 -3 3 0 13 7 21 10 12 10 21 2 38 -6 12 -10
38 -8 57 1 19 -2 38 -8 42 -26 18 -35 7 -38 -44 -3 -48 -5 -53 -25 -52 -13 0
-23 -3 -23 -8 0 -4 -5 -8 -10 -8 -6 0 -3 12 6 26 14 21 15 27 4 34 -20 12 -43
1 -30 -15 7 -9 6 -15 -2 -22 -18 -14 -89 -15 -105 -2 -10 9 -13 8 -13 -4 0 -9
-5 -19 -12 -23 -7 -5 -9 -2 -6 7 4 11 -5 14 -46 12 -30 -1 -50 -6 -48 -12 3
-17 -15 -13 -22 5 -4 9 -13 14 -21 10 -8 -3 -15 -1 -15 3 0 5 5 11 12 13 6 2
9 11 6 19 -4 10 -9 6 -19 -14 -19 -40 -54 -34 -54 10 0 20 -3 29 -9 23 -6 -6
-18 -10 -27 -10 -11 0 -19 -9 -21 -22 -2 -18 -9 -23 -31 -21 -28 2 -37 -11
-14 -20 7 -4 6 -6 -4 -6 -9 -1 -22 6 -29 14 -14 17 -60 16 -60 -1 0 -22 -24
-33 -39 -17 -12 13 -11 14 8 8 23 -7 30 9 8 18 -10 4 -13 20 -9 62 4 54 4 57
-16 51 -14 -5 -24 -1 -31 11 -8 14 -10 15 -11 3 0 -12 -2 -12 -9 -2 -6 10 -10
3 -15 -21z m52 -79 c8 -10 11 -18 6 -18 -27 1 -54 43 -46 74 5 18 7 17 15 -9
5 -17 16 -38 25 -47z m709 47 c-5 -37 -17 -42 -17 -7 0 18 5 32 10 32 6 0 9
-11 7 -25z m-687 -10 c0 -8 -4 -15 -10 -15 -5 0 -10 7 -10 15 0 8 5 15 10 15
6 0 10 -7 10 -15z m222 -60 c3 -14 2 -25 -1 -25 -10 0 -30 37 -24 44 12 12 21
6 25 -19z m473 4 c10 -30 0 -33 -13 -4 -6 14 -7 25 -2 25 5 0 12 -9 15 -21z
m-278 -25 c-3 -3 -12 -4 -19 -1 -8 3 -5 6 6 6 11 1 17 -2 13 -5z m80 0 c-3 -3
-12 -4 -19 -1 -8 3 -5 6 6 6 11 1 17 -2 13 -5z m56 -1 c-7 -2 -21 -2 -30 0
-10 3 -4 5 12 5 17 0 24 -2 18 -5z m124 1 c-3 -3 -12 -4 -19 -1 -8 3 -5 6 6 6
11 1 17 -2 13 -5z m-630 -36 c-3 -8 -6 -5 -6 6 -1 11 2 17 5 13 3 -3 4 -12 1
-19z m76 -55 c-7 -2 -19 -2 -25 0 -7 3 -2 5 12 5 14 0 19 -2 13 -5z m507 -7
c0 -3 -4 -8 -10 -11 -5 -3 -10 -1 -10 4 0 6 5 11 10 11 6 0 10 -2 10 -4z
m-193 -81 c8 -9 13 -18 10 -21 -6 -7 -47 18 -47 28 0 13 21 9 37 -7z m113 -45
c0 -5 -4 -10 -10 -10 -5 0 -10 5 -10 10 0 6 5 10 10 10 6 0 10 -4 10 -10z"/>
<path d="M7404 6089 c1 -27 16 -31 16 -3 0 8 5 14 11 14 6 0 8 -9 4 -20 -4
-11 -2 -20 4 -20 6 0 11 11 11 24 0 17 -7 25 -23 28 -21 4 -24 1 -23 -23z"/>
<path d="M6883 6071 c-2 -26 2 -41 12 -45 20 -7 25 5 18 47 -8 49 -27 47 -30
-2z m27 -21 c0 -5 -2 -10 -4 -10 -3 0 -8 5 -11 10 -3 6 -1 10 4 10 6 0 11 -4
11 -10z"/>
<path d="M7010 6099 c0 -5 5 -7 10 -4 6 3 10 8 10 11 0 2 -4 4 -10 4 -5 0 -10
-5 -10 -11z"/>
<path d="M7235 6059 c-4 -6 -5 -12 -2 -15 2 -3 7 2 10 11 7 17 1 20 -8 4z"/>
<path d="M7575 6040 c3 -5 10 -10 16 -10 5 0 9 5 9 10 0 6 -7 10 -16 10 -8 0
-12 -4 -9 -10z"/>
<path d="M2880 5886 c-3 -3 -37 -7 -75 -10 -80 -5 -106 -16 -163 -70 -39 -37
-86 -113 -81 -132 1 -5 -1 -17 -6 -27 -17 -39 3 -135 40 -193 20 -31 39 -53
43 -50 3 4 2 10 -4 14 -14 9 -45 74 -39 80 8 8 35 -32 30 -45 -2 -6 3 -17 11
-23 8 -7 14 -17 14 -22 0 -6 11 -23 25 -40 14 -16 25 -37 24 -46 0 -14 -2 -14
-8 2 -10 26 -17 8 -26 -69 l-8 -59 30 25 c19 15 26 27 19 31 -8 5 -7 8 2 8 6
0 12 8 12 18 1 16 1 16 11 0 9 -17 12 -17 39 4 22 16 27 25 19 34 -7 8 -7 14
1 19 5 3 10 -1 10 -9 0 -12 10 -16 35 -16 24 0 35 5 35 15 0 13 18 15 108 13
l107 -2 -102 -3 c-126 -4 -139 -23 -15 -23 110 1 163 13 224 52 50 33 57 42
36 52 -7 3 -3 3 10 0 16 -4 22 -1 22 11 0 8 7 18 16 22 11 4 14 13 9 32 -4 19
-3 22 4 11 29 -43 45 140 19 212 -22 60 -82 133 -100 122 -6 -4 -8 -2 -5 3 4
6 -16 21 -46 34 -41 18 -75 24 -162 27 -60 2 -112 1 -115 -2z m180 -16 c0 -5
-4 -10 -10 -10 -5 0 -10 5 -10 10 0 6 5 10 10 10 6 0 10 -4 10 -10z m-260 -14
c0 -10 -7 -12 -22 -8 -21 5 -21 6 -2 13 10 4 20 8 22 8 1 1 2 -5 2 -13z m-60
-6 c0 -5 -5 -10 -11 -10 -5 0 -7 -4 -4 -10 3 -6 -1 -7 -10 -4 -12 5 -13 9 -4
20 13 16 29 18 29 4z m346 -10 c9 0 13 -4 10 -9 -7 -11 -56 -2 -56 11 0 6 7 7
16 4 9 -3 22 -6 30 -6z m70 -5 c16 -16 7 -19 -20 -9 -18 7 -22 24 -5 24 6 0
17 -7 25 -15z m51 -67 c-3 -8 -6 -5 -6 6 -1 11 2 17 5 13 3 -3 4 -12 1 -19z
m83 -46 c0 -9 -6 -12 -16 -8 -9 3 -20 6 -25 6 -5 0 -9 4 -9 9 0 5 10 7 23 4
20 -4 19 -2 -5 14 -16 10 -28 24 -28 32 0 10 10 5 30 -14 17 -16 30 -35 30
-43z m-593 32 c-3 -3 -12 -4 -19 -1 -8 3 -5 6 6 6 11 1 17 -2 13 -5z m-84 -31
c-4 -36 22 -72 39 -55 20 20 126 13 113 -8 -2 -4 14 -2 36 4 27 7 42 7 47 0 4
-5 14 -9 22 -9 8 0 19 -4 23 -10 5 -5 5 0 2 13 -6 22 -4 23 32 20 21 -2 37 -7
36 -13 -1 -5 14 -10 32 -11 19 0 32 3 29 8 -3 4 0 8 5 8 6 0 11 9 11 21 0 11
5 17 10 14 6 -4 8 -10 6 -14 -3 -4 -1 -13 4 -21 8 -12 13 -11 31 9 17 18 23
20 30 9 5 -8 29 -13 66 -14 79 -1 83 -2 77 -19 -10 -24 12 -17 23 7 6 15 12
18 17 10 4 -7 2 -12 -3 -12 -6 0 -11 -7 -11 -15 0 -8 -4 -15 -10 -15 -5 0 -10
-7 -10 -15 0 -8 -5 -15 -11 -15 -7 0 -10 -12 -7 -30 6 -39 -23 -70 -47 -50 -9
7 -25 10 -41 6 -35 -9 -64 1 -74 27 -7 18 -9 15 -11 -18 -1 -22 -3 -32 -6 -22
-2 9 -9 17 -14 17 -5 0 -9 -8 -10 -17 0 -11 -3 -13 -6 -5 -2 6 -18 12 -33 12
-16 0 -32 5 -35 10 -11 17 -25 11 -25 -11 0 -15 -5 -20 -22 -17 -13 2 -23 8
-23 15 0 23 -15 26 -16 2 0 -17 -2 -19 -7 -9 -10 22 -72 26 -72 6 0 -9 -5 -16
-11 -16 -5 0 -8 4 -5 9 3 5 -5 16 -18 25 -17 10 -26 12 -28 4 -2 -6 -22 -12
-43 -14 -23 -1 -39 -7 -37 -13 1 -6 -2 -11 -8 -11 -5 0 -11 10 -12 23 -6 87
-17 129 -40 145 -20 15 -23 34 -8 63 14 26 17 24 13 -8z m62 7 c18 -8 17 -9
-7 -9 -29 -1 -38 -15 -15 -24 7 -3 5 -6 -5 -6 -18 -1 -25 28 -11 42 8 8 12 8
38 -3z m84 -6 c10 -9 -35 -3 -49 6 -11 8 -7 9 15 4 17 -4 32 -8 34 -10z m148
10 c-3 -3 -12 -4 -19 -1 -8 3 -5 6 6 6 11 1 17 -2 13 -5z m217 -2 c3 -5 -8 -6
-25 -4 -16 2 -29 6 -29 8 0 8 49 4 54 -4z m76 -12 c3 -4 14 -12 25 -18 19 -11
19 -11 -2 -12 -13 0 -23 4 -23 10 0 5 -11 12 -25 16 -14 3 -25 10 -25 14 0 9
42 1 50 -10z m-240 -20 c0 -3 -18 -5 -40 -5 -45 -1 -51 5 -17 21 20 9 57 -1
57 -16z m-240 0 c0 -5 -7 -7 -15 -4 -8 4 -15 8 -15 10 0 2 7 4 15 4 8 0 15 -4
15 -10z m70 -10 c26 -16 4 -21 -31 -6 -31 14 -32 15 -9 15 14 1 32 -3 40 -9z
m390 0 c0 -13 -20 -13 -40 0 -12 8 -9 10 13 10 15 0 27 -4 27 -10z m120 -145
c-8 -20 -14 -25 -22 -17 -7 7 -6 17 6 33 9 13 17 35 18 49 1 21 2 20 5 -6 2
-16 -1 -43 -7 -59z m-535 -35 c3 -5 1 -10 -4 -10 -6 0 -11 5 -11 10 0 6 2 10
4 10 3 0 8 -4 11 -10z m252 -6 c-3 -3 -12 -4 -19 -1 -8 3 -5 6 6 6 11 1 17 -2
13 -5z m160 0 c-3 -3 -12 -4 -19 -1 -8 3 -5 6 6 6 11 1 17 -2 13 -5z m-469
-105 c19 -30 11 -32 -17 -3 -15 15 -18 24 -9 24 7 0 19 -9 26 -21z m445 9 c3
-10 9 -10 25 -1 21 13 32 8 32 -13 0 -8 -6 -11 -16 -7 -9 3 -27 -6 -45 -23
-23 -22 -29 -24 -29 -11 0 9 5 17 11 17 7 0 9 10 7 25 -5 25 7 35 15 13z
m-389 -87 c3 -5 -1 -11 -9 -15 -15 -6 -29 7 -18 18 9 9 21 8 27 -3z m-77 -53
c-3 -8 -6 -5 -6 6 -1 11 2 17 5 13 3 -3 4 -12 1 -19z m3 -28 c0 -5 -4 -10 -10
-10 -5 0 -10 5 -10 10 0 6 5 10 10 10 6 0 10 -4 10 -10z"/>
<path d="M3180 5594 c0 -16 -2 -17 -10 -4 -6 9 -10 10 -10 3 0 -19 20 -26 26
-8 4 9 4 19 0 22 -3 4 -6 -2 -6 -13z"/>
<path d="M7345 5720 c3 -5 8 -10 11 -10 2 0 4 5 4 10 0 6 -5 10 -11 10 -5 0
-7 -4 -4 -10z"/>
<path d="M7400 5701 c0 -5 5 -13 10 -16 6 -3 10 -2 10 4 0 5 -4 13 -10 16 -5
3 -10 2 -10 -4z"/>
<path d="M7705 5697 c-53 -16 -90 -42 -115 -82 -24 -38 -26 -65 -5 -65 8 0 15
5 15 12 0 23 46 78 78 94 34 16 124 21 164 9 39 -12 84 -52 103 -91 15 -32 19
-35 32 -21 13 13 12 19 -5 53 -25 47 -45 65 -100 87 -48 19 -108 20 -167 4z"/>
<path d="M6174 5631 c-124 -46 -211 -139 -244 -261 -18 -65 -19 -84 -9 -156 9
-68 42 -143 79 -182 20 -21 21 -29 15 -109 -4 -48 -4 -84 1 -82 5 2 41 21 80
41 63 33 76 36 105 28 19 -6 61 -10 95 -10 144 0 277 84 339 215 30 65 46 198
28 238 -6 12 -23 50 -39 85 -34 77 -101 143 -182 180 -76 35 -193 40 -268 13z
m24 -265 c2 -10 -2 -22 -10 -27 -10 -6 -10 -9 0 -9 8 0 12 -20 12 -65 0 -63
-1 -65 -25 -65 -24 0 -25 2 -25 65 0 45 4 65 13 66 10 0 10 2 0 6 -14 5 -17
35 -6 47 12 12 38 1 41 -18z m-66 -28 c15 -24 4 -42 -27 -43 -23 0 -30 -5 -30
-20 0 -15 8 -21 33 -23 28 -3 33 -7 30 -25 -3 -19 -10 -22 -50 -25 -39 -3 -49
1 -62 20 -16 23 -21 85 -8 104 21 32 96 40 114 12z m451 -24 c-4 -101 -8 -119
-26 -122 -21 -4 -33 23 -18 41 6 8 7 18 2 23 -5 5 -12 26 -15 47 -6 33 -4 38
16 46 35 15 43 8 41 -35z m-269 20 l46 -7 0 -63 0 -63 -57 0 c-32 1 -64 6 -70
11 -16 13 -17 100 -1 116 14 14 19 14 82 6z m183 -15 c18 -16 17 -84 -3 -103
-19 -19 -87 -21 -102 -3 -31 38 -25 102 11 117 25 11 74 5 94 -11z"/>
<path d="M6270 5270 c0 -11 5 -20 10 -20 6 0 10 9 10 20 0 11 -4 20 -10 20 -5
0 -10 -9 -10 -20z"/>
<path d="M6430 5265 c0 -14 5 -25 10 -25 6 0 10 11 10 25 0 14 -4 25 -10 25
-5 0 -10 -11 -10 -25z"/>
<path d="M3717 5626 c-46 -17 -99 -57 -127 -97 -25 -35 -50 -109 -50 -149 0
-59 33 -131 82 -180 64 -65 115 -80 267 -80 l116 -1 70 -53 c39 -30 71 -53 73
-52 1 2 -2 27 -8 56 -14 71 -13 110 3 110 14 0 54 56 79 112 25 57 23 132 -6
193 -31 66 -67 102 -130 131 -46 22 -64 24 -191 23 -91 0 -153 -5 -178 -13z
m-27 -196 c0 -11 5 -20 10 -20 6 0 10 9 10 20 0 28 38 26 50 -2 5 -13 9 -17 9
-10 1 8 19 12 55 12 30 0 57 4 60 9 9 14 96 12 97 -2 1 -7 1 -21 0 -32 -1 -18
0 -18 9 3 7 17 17 22 48 22 21 0 43 -5 50 -12 9 -9 12 -8 12 4 0 19 24 30 46
21 12 -4 14 -14 10 -36 -3 -16 -6 -42 -6 -58 0 -22 -5 -29 -20 -29 -16 0 -20
7 -20 38 l-1 37 -13 -31 c-8 -17 -21 -34 -31 -37 -28 -11 -63 4 -75 31 l-10
27 3 -27 4 -27 -92 -3 c-111 -4 -125 -1 -126 20 -1 15 -2 15 -6 0 -6 -22 -53
-25 -53 -3 0 8 -5 15 -11 15 -6 0 -9 -7 -5 -15 4 -11 -2 -15 -22 -15 -26 0
-27 2 -25 52 1 29 2 56 2 61 1 4 10 7 21 7 13 0 20 -7 20 -20z"/>
<path d="M3873 5380 c0 -25 2 -35 4 -22 2 12 2 32 0 45 -2 12 -4 2 -4 -23z"/>
<path d="M3933 5380 c0 -25 2 -35 4 -22 2 12 2 32 0 45 -2 12 -4 2 -4 -23z"/>
<path d="M5176 5601 c-7 -11 18 -33 27 -24 4 3 7 12 7 20 0 15 -26 18 -34 4z"/>
<path d="M5103 5483 c-10 -22 -10 -28 0 -35 20 -13 32 -3 29 23 -6 37 -16 41
-29 12z"/>
<path d="M1470 5481 c-59 -19 -98 -37 -116 -56 -7 -6 -26 -23 -42 -37 -53 -45
-104 -135 -119 -212 -12 -62 -11 -81 3 -151 8 -44 20 -81 25 -83 5 -2 9 -8 9
-14 0 -23 73 -108 120 -139 l51 -34 -6 -132 c-6 -103 -4 -133 5 -133 7 0 45
28 84 63 39 34 98 85 131 112 33 28 62 53 63 57 2 5 11 8 21 8 24 0 126 63
165 102 97 99 139 286 88 393 -11 22 -27 57 -37 78 -9 20 -41 59 -70 86 -111
100 -246 134 -375 92z m-140 -316 c0 -31 17 -33 22 -2 2 16 11 23 31 25 l28 3
-3 -73 c-3 -70 -4 -73 -28 -73 -20 0 -26 6 -31 30 -6 31 -10 27 -25 -22 -5
-18 -41 -16 -48 3 -8 21 -8 119 1 127 3 4 17 7 30 7 18 0 23 -5 23 -25z m280
-50 c0 -73 -1 -75 -25 -75 -24 0 -25 2 -25 75 0 73 1 75 25 75 24 0 25 -2 25
-75z m70 0 c0 -73 -1 -75 -25 -75 -24 0 -25 2 -25 75 0 73 1 75 25 75 24 0 25
-2 25 -75z m213 30 c-4 -90 -8 -110 -24 -113 -20 -4 -33 26 -20 42 6 7 6 17 1
26 -14 22 -12 77 3 83 30 13 42 2 40 -38z m-366 17 c7 -4 16 -22 19 -40 6 -31
6 -32 -32 -34 -38 -1 -38 -1 -6 -5 25 -3 32 -9 30 -21 -2 -12 -15 -18 -45 -20
-33 -2 -44 1 -57 20 -35 50 -11 108 44 108 19 0 41 -4 47 -8z m284 -8 c7 -9
13 -31 13 -49 0 -46 -19 -65 -65 -65 -30 0 -42 5 -55 25 -18 28 -13 90 9 98
28 12 85 6 98 -9z"/>
<path d="M1750 5100 c0 -11 5 -20 10 -20 6 0 10 9 10 20 0 11 -4 20 -10 20 -5
0 -10 -9 -10 -20z"/>
<path d="M7687 5406 c-6 -15 1 -26 15 -26 4 0 8 9 8 20 0 23 -15 27 -23 6z"/>
<path d="M7840 5400 c0 -13 5 -20 13 -17 6 2 12 10 12 17 0 7 -6 15 -12 18 -8
2 -13 -5 -13 -18z"/>
<path d="M7775 5317 c-4 -10 -5 -21 -1 -24 10 -10 18 4 13 24 -4 17 -4 17 -12
0z"/>
<path d="M4397 5293 c-4 -3 -7 -23 -7 -44 0 -56 -8 -68 -51 -75 -46 -8 -46 -9
-23 -139 23 -124 45 -169 98 -195 23 -11 54 -20 69 -20 21 0 27 -5 27 -21 0
-12 5 -19 13 -16 6 2 11 11 11 19 -1 9 14 20 35 28 20 7 61 35 90 62 30 26 61
48 67 48 8 0 14 -18 16 -47 3 -42 6 -48 23 -45 26 5 23 0 36 68 15 78 6 156
-22 195 -39 56 -128 104 -216 119 -84 14 -107 22 -139 51 -11 11 -24 16 -27
12z"/>
<path d="M2156 5259 c-48 -7 -79 -17 -102 -34 -30 -23 -31 -27 -23 -67 29
-154 52 -296 51 -315 -2 -25 8 -29 25 -12 8 8 17 7 34 -5 59 -41 163 6 241
109 21 27 41 51 45 52 12 4 43 -70 43 -103 0 -22 8 -33 31 -47 18 -10 33 -16
34 -15 5 8 55 338 55 365 0 26 -6 36 -30 48 -61 31 -255 43 -404 24z"/>
<path d="M4912 5195 c-11 -13 -22 -22 -24 -19 -6 5 -1 -56 8 -101 l6 -30 206
5 c186 5 207 7 204 22 -1 9 2 19 7 22 13 8 -3 68 -25 100 l-19 25 -172 1
c-171 0 -172 0 -191 -25z m148 4 c3 -1 -24 -5 -60 -9 -66 -6 -83 -4 -63 8 10
6 109 7 123 1z m35 1 c3 -5 -1 -10 -10 -10 -9 0 -13 5 -10 10 3 6 8 10 10 10
2 0 7 -4 10 -10z m-49 -47 c2 -22 1 -23 -15 -9 -10 9 -29 16 -44 16 -14 0 -28
4 -31 8 -3 5 16 9 42 9 43 1 47 -1 48 -24z m49 17 c3 -5 1 -10 -4 -10 -6 0
-11 5 -11 10 0 6 2 10 4 10 3 0 8 -4 11 -10z m-165 -10 c0 -5 -4 -10 -10 -10
-5 0 -10 5 -10 10 0 6 5 10 10 10 6 0 10 -4 10 -10z m158 -50 l57 -19 -119 2
c-85 1 -121 6 -124 15 -2 6 1 12 8 12 6 0 8 -4 5 -10 -3 -5 -2 -10 3 -10 5 0
12 9 15 19 5 22 51 32 80 18 10 -4 44 -17 75 -27z"/>
<path d="M4855 5121 c-8 -17 -12 -31 -8 -31 4 0 2 -5 -5 -12 -7 -7 -12 -18
-12 -26 0 -7 11 0 24 15 14 15 20 29 15 31 -5 2 -4 12 2 24 6 11 8 22 6 25 -3
3 -13 -9 -22 -26z"/>
<path d="M4913 4994 c-3 -8 -4 -17 -1 -19 2 -2 93 -5 203 -6 198 -1 200 -1
203 20 3 22 3 22 -198 21 -167 -1 -202 -4 -207 -16z"/>
<path d="M5548 4979 c-81 -12 -148 -69 -148 -124 0 -9 -8 -19 -17 -22 -42 -15
-64 -53 -63 -107 0 -28 -3 -72 -6 -98 -8 -61 10 -112 53 -151 34 -32 117 -70
127 -59 14 14 5 42 -14 42 -31 0 -60 39 -60 80 0 36 23 70 48 70 8 0 12 22 12
65 l0 65 59 0 c52 0 63 -4 88 -29 28 -27 30 -28 41 -11 15 25 77 41 123 34
l37 -6 -5 -57 c-5 -54 -4 -57 26 -73 56 -31 51 -109 -9 -131 -19 -7 -30 -19
-30 -30 0 -16 5 -18 33 -12 72 16 107 48 107 98 0 13 10 32 21 43 12 10 25 29
30 42 12 31 -5 99 -30 123 -12 11 -21 29 -21 41 0 52 -83 138 -134 138 -7 0
-18 11 -26 24 -17 33 -61 50 -112 43 -22 -3 -50 -2 -62 2 -11 4 -42 4 -68 0z"/>
<path d="M7592 4931 c-17 -54 -35 -198 -28 -216 4 -13 38 -14 218 -12 l213 2
-3 45 c-2 25 -10 78 -19 118 l-15 72 -57 1 c-105 1 -226 10 -255 20 -41 13
-42 13 -54 -30z"/>
<path d="M4902 4903 c3 -16 23 -18 216 -21 207 -2 212 -2 212 18 0 19 -6 20
-216 20 -200 0 -215 -1 -212 -17z"/>
<path d="M2382 4836 c1 -10 8 -17 13 -17 15 1 12 24 -3 29 -9 3 -13 -2 -10
-12z"/>
<path d="M4900 4820 c0 -20 5 -20 212 -18 193 3 213 5 216 21 3 16 -12 17
-212 17 -210 0 -216 -1 -216 -20z"/>
<path d="M4660 4800 c0 -13 5 -20 13 -17 6 2 12 10 12 17 0 7 -6 15 -12 18 -8
2 -13 -5 -13 -18z"/>
<path d="M2080 4748 c0 -14 -3 -28 -7 -32 -4 -3 -8 -12 -9 -19 -2 -7 -11 -47
-20 -90 -17 -76 -17 -78 3 -105 17 -22 28 -27 61 -26 67 1 75 17 67 139 -7 95
-9 105 -27 105 -10 0 -30 12 -43 26 l-25 27 0 -25z"/>
<path d="M2513 4745 c-12 -15 -28 -23 -36 -19 -15 5 -22 -30 -30 -161 l-2 -40
-65 -5 -64 -5 -2 -32 c-2 -47 -11 -64 -29 -57 -10 4 -15 0 -15 -14 0 -24 16
-38 23 -20 3 8 6 6 6 -4 1 -14 10 -18 42 -18 33 0 40 -3 37 -17 -2 -13 -13
-18 -38 -19 -25 0 -36 -5 -38 -17 -3 -14 4 -17 37 -17 35 0 41 -3 41 -21 0
-18 -5 -20 -37 -17 -28 2 -37 -1 -39 -15 -2 -14 5 -17 37 -17 32 0 39 -3 39
-20 0 -17 -7 -20 -40 -20 -36 0 -40 -2 -36 -22 3 -22 8 -23 99 -26 l97 -3 0
75 c0 41 -5 97 -11 125 -7 35 -7 61 0 89 10 35 16 41 46 46 22 4 41 17 51 32
16 23 15 32 -12 144 -16 66 -31 120 -34 120 -3 0 -15 -12 -27 -25z m-73 -395
c0 -5 -7 -10 -15 -10 -8 0 -15 5 -15 10 0 6 7 10 15 10 8 0 15 -4 15 -10z m-5
-79 c-9 -16 -25 -3 -18 15 4 10 9 12 15 6 6 -6 7 -15 3 -21z m2 -67 c-9 -9
-28 6 -21 18 4 6 10 6 17 -1 6 -6 8 -13 4 -17z"/>
<path d="M2306 4724 c-7 -18 0 -34 15 -34 12 0 12 37 0 44 -5 3 -12 -1 -15
-10z"/>
<path d="M4587 4706 c-3 -8 1 -17 10 -20 20 -8 25 -3 17 18 -8 20 -20 21 -27
2z"/>
<path d="M6387 4659 c-32 -11 -65 -25 -74 -32 -51 -41 -73 -70 -78 -104 -3
-21 -8 -47 -10 -58 -4 -18 13 -376 18 -381 1 -1 19 -5 40 -9 l37 -7 0 39 c0
22 -3 61 -6 87 -6 40 -10 46 -30 46 -50 0 -59 85 -11 108 15 7 27 20 27 28 0
8 10 31 23 52 13 20 27 46 30 56 7 17 15 18 99 12 50 -3 105 -6 122 -6 27 0
35 -7 59 -49 15 -27 27 -58 27 -70 0 -14 6 -21 19 -21 27 0 43 -24 39 -62 -2
-27 -8 -35 -34 -42 -31 -9 -31 -10 -37 -90 -4 -44 -5 -82 -3 -84 3 -2 22 -1
44 3 l39 6 7 76 c10 127 7 349 -6 380 -15 35 -58 83 -74 83 -7 0 -14 5 -16 11
-5 15 -115 49 -157 49 -20 -1 -62 -10 -94 -21z"/>
<path d="M9169 4669 c-65 -15 -142 -50 -183 -82 -58 -45 -63 -50 -87 -96 -19
-37 -21 -53 -17 -138 5 -80 2 -110 -18 -182 -21 -75 -31 -141 -21 -141 2 0 50
18 108 41 106 41 111 42 199 19 25 -6 81 -10 125 -8 96 5 185 42 252 104 116
109 110 284 -13 393 -56 49 -97 68 -182 86 -74 16 -110 17 -163 4z m-97 -257
c-3 -42 -8 -62 -15 -59 -7 2 -10 16 -9 32 3 22 1 27 -12 22 -11 -5 -16 -1 -16
13 0 11 4 20 8 20 5 0 14 12 21 27 18 39 28 16 23 -55z m71 59 c-2 -7 13 -11
37 -11 28 0 40 -4 40 -14 0 -21 -21 -31 -31 -15 -12 20 -19 7 -21 -36 -1 -21
-7 -39 -15 -42 -8 -3 -11 -13 -8 -24 5 -14 1 -19 -10 -19 -13 0 -16 5 -11 23
11 36 19 107 12 107 -3 0 -15 -5 -26 -12 -30 -19 -35 -2 -9 31 23 29 47 36 42
12z m177 -6 c0 -18 5 -25 20 -25 23 0 25 -17 9 -75 -8 -29 -8 -40 0 -43 19 -6
12 -22 -9 -22 -11 0 -29 -9 -41 -21 -15 -15 -24 -18 -32 -10 -7 7 -3 16 14 31
22 18 23 21 7 30 -13 8 -16 18 -11 40 3 18 0 36 -7 45 -10 12 -9 16 4 21 9 3
16 14 16 23 0 10 3 21 7 24 13 14 23 6 23 -18z m160 -5 c0 -5 -11 -17 -25 -26
-32 -21 -32 -42 0 -46 14 -2 26 -7 26 -13 0 -5 -12 -11 -26 -13 -22 -3 -25 -8
-25 -47 0 -42 -18 -64 -41 -49 -14 8 -11 24 6 24 10 0 15 11 15 35 0 31 -3 35
-25 35 -16 0 -25 6 -25 15 0 9 9 15 25 15 17 0 25 5 25 18 0 10 5 23 12 30 9
9 4 12 -25 12 -20 0 -37 5 -37 10 0 6 27 10 60 10 33 0 60 -4 60 -10z m-356
-62 c-15 -27 -27 -38 -35 -32 -13 8 9 44 27 44 9 0 12 -5 8 -12z m86 -3 c7 -9
11 -18 8 -20 -9 -10 -38 7 -38 21 0 18 14 18 30 -1z m18 -83 c5 -16 -21 -15
-36 0 -7 7 -12 18 -12 26 0 12 3 12 22 0 12 -8 24 -20 26 -26z m-178 11 c0
-26 -16 -47 -29 -39 -7 5 -7 14 1 31 13 29 28 33 28 8z m45 -9 c0 -23 53 -33
66 -12 6 10 11 10 20 1 20 -20 -1 -33 -57 -33 l-54 0 0 36 c0 24 4 34 12 32 7
-3 13 -13 13 -24z"/>
<path d="M9312 4403 c-15 -26 -15 -53 -2 -53 11 0 24 43 18 62 -3 8 -9 5 -16
-9z"/>
<path d="M5555 4630 c-4 -6 -3 -16 3 -22 6 -6 12 -6 17 2 4 6 3 16 -3 22 -6 6
-12 6 -17 -2z"/>
<path d="M5730 4620 c0 -13 5 -20 13 -17 6 2 12 10 12 17 0 7 -6 15 -12 18 -8
2 -13 -5 -13 -18z"/>
<path d="M7559 4568 c-88 -49 -150 -164 -136 -250 15 -89 17 -93 80 -161 41
-44 41 -44 26 -106 -6 -26 -6 -48 -1 -53 5 -5 41 10 86 37 l77 45 149 0 c181
0 225 10 282 65 77 73 82 82 86 175 5 106 -15 159 -83 222 -51 48 -107 58
-319 58 l-191 0 -56 -32z m508 -132 c11 -13 28 -25 38 -27 23 -5 32 -29 11
-29 -13 0 -16 -12 -16 -64 0 -36 -4 -67 -9 -70 -11 -7 -21 17 -21 50 0 21 -5
24 -35 24 -28 0 -35 -4 -35 -19 0 -10 7 -24 15 -31 12 -10 13 -16 5 -24 -8 -8
-17 -5 -31 13 -37 45 -18 81 43 81 31 0 38 4 38 20 0 18 -7 20 -80 20 -72 0
-80 -2 -80 -19 0 -14 8 -21 25 -23 34 -4 37 -22 5 -26 -49 -6 -54 -11 -36 -30
18 -20 21 -42 7 -42 -14 0 -71 72 -65 82 3 5 12 7 21 6 10 -2 16 6 19 25 2 25
0 27 -32 27 l-34 0 0 -65 c0 -51 -3 -65 -15 -65 -10 0 -15 10 -15 30 0 25 -4
30 -24 30 -15 0 -26 -7 -29 -20 -6 -25 -43 -27 -56 -2 -11 21 3 52 24 52 8 0
15 9 15 20 0 16 -7 20 -35 20 l-35 0 0 -65 c0 -37 -4 -65 -10 -65 -5 0 -10 16
-10 35 0 28 -4 35 -19 35 -13 0 -21 -8 -23 -22 -2 -18 -10 -23 -33 -23 -24 0
-31 5 -33 23 -5 35 15 52 64 52 32 0 44 4 44 15 0 12 -13 15 -55 15 -30 0 -55
5 -55 10 0 8 436 18 513 12 21 -2 22 11 2 28 -15 12 -12 30 5 30 5 0 17 -11
27 -24z"/>
<path d="M7740 4360 c0 -15 7 -20 25 -20 18 0 25 5 25 20 0 15 -7 20 -25 20
-18 0 -25 -5 -25 -20z"/>
<path d="M7546 4311 c-4 -5 -2 -12 3 -15 5 -4 12 -2 15 3 4 5 2 12 -3 15 -5 4
-12 2 -15 -3z"/>
<path d="M5646 4514 c-9 -23 -8 -24 14 -24 23 0 26 13 6 29 -11 9 -15 8 -20
-5z"/>
<path d="M2220 4468 c1 -2 7 -25 14 -53 l13 -50 7 32 c7 32 -6 73 -24 73 -6 0
-10 -1 -10 -2z"/>
<path d="M4740 4412 c0 -21 -17 -42 -70 -91 l-70 -64 0 -54 0 -54 108 3 107 3
-2 100 c-1 55 -6 118 -10 140 -7 33 -13 40 -36 42 -23 2 -27 -2 -27 -25z"/>
<path d="M4407 4423 c-4 -3 -7 -64 -7 -135 l0 -128 30 0 30 0 0 98 c0 128 -8
172 -30 172 -9 0 -20 -3 -23 -7z"/>
<path d="M6384 4389 c-10 -17 13 -36 27 -22 12 12 4 33 -11 33 -5 0 -12 -5
-16 -11z"/>
<path d="M6544 4389 c-3 -6 0 -17 8 -25 13 -13 16 -13 27 0 7 8 10 20 6 26 -8
13 -32 13 -41 -1z"/>
<path d="M2136 4349 c-3 -17 -6 -71 -6 -120 l0 -89 59 0 c52 0 59 2 64 22 4
13 1 26 -6 30 -9 5 -9 14 -1 35 8 21 8 34 0 47 -8 14 -8 20 2 23 6 3 12 11 12
19 0 11 -9 13 -39 8 -36 -6 -39 -4 -52 25 -17 39 -25 39 -33 0z"/>
<path d="M2270 4315 c0 -8 5 -15 10 -15 6 0 10 7 10 15 0 8 -4 15 -10 15 -5 0
-10 -7 -10 -15z"/>
<path d="M6475 4278 c-5 -20 -15 -29 -38 -34 -52 -11 -57 -23 -57 -131 0 -87
3 -102 21 -122 46 -49 113 -54 158 -12 l32 30 -3 108 -3 108 -34 16 c-18 8
-41 26 -51 40 l-18 24 -7 -27z m50 -138 c-3 -5 -24 -10 -46 -10 -21 0 -39 5
-39 10 0 6 21 10 46 10 27 0 43 -4 39 -10z"/>
<path d="M5640 4215 c-6 -8 -9 -19 -5 -25 11 -19 -6 -10 -27 13 -11 12 -17 17
-14 11 9 -18 -20 -37 -44 -29 -14 4 -19 12 -16 22 5 11 2 13 -10 9 -8 -3 -21
-6 -27 -6 -8 0 -7 -4 1 -12 19 -19 14 -30 -9 -23 -18 6 -19 4 -10 -13 14 -26
-11 -64 -30 -44 -7 6 -18 12 -24 12 -18 0 -47 -58 -40 -80 4 -13 1 -22 -9 -26
-9 -3 -16 -10 -16 -16 0 -5 14 1 31 13 23 16 28 24 17 30 -17 11 1 43 28 47
18 3 18 2 0 -12 -10 -8 -15 -20 -11 -26 5 -8 15 -4 32 12 24 23 25 23 39 3 12
-17 12 -20 -1 -28 -10 -5 -15 -24 -15 -61 0 -52 1 -54 31 -60 17 -3 96 -6 174
-6 l142 0 7 145 c4 79 5 149 1 155 -10 17 -180 13 -195 -5z m118 -13 c2 -7 -6
-12 -17 -12 -21 0 -27 11 -14 24 9 9 26 2 31 -12z m-119 -46 c12 -14 3 -56
-11 -56 -5 0 -6 5 -3 10 3 6 -3 10 -15 10 -23 0 -41 31 -22 38 7 2 10 7 7 12
-8 12 33 0 44 -14z m-69 4 c0 -5 -4 -10 -9 -10 -6 0 -13 5 -16 10 -3 6 1 10 9
10 9 0 16 -4 16 -10z m134 -6 c18 -7 12 -24 -10 -24 -8 0 -14 7 -14 15 0 17 2
18 24 9z m-180 -12 c-6 -4 -14 -16 -17 -26 -10 -25 -21 -13 -12 13 3 12 14 21
23 21 10 0 13 -3 6 -8z m41 -41 c-9 -34 -14 -39 -26 -21 -8 13 -10 13 -20 0
-8 -11 -9 -8 -4 15 7 33 21 46 42 38 10 -4 12 -14 8 -32z m220 19 c3 -6 -1
-13 -10 -16 -19 -8 -30 0 -20 15 8 14 22 14 30 1z m-175 -25 c0 -8 -4 -15 -8
-15 -5 0 -9 7 -9 15 0 8 4 15 9 15 4 0 8 -7 8 -15z"/>
<path d="M8380 4191 c-55 -21 -179 -88 -201 -107 -17 -16 -13 -76 15 -197 9
-41 12 -92 9 -153 -7 -109 1 -121 70 -116 45 4 47 5 47 36 0 54 -10 76 -36 76
-65 0 -72 116 -8 140 18 7 24 17 25 42 0 30 7 37 75 81 41 26 80 47 87 47 7 0
47 -23 90 -51 70 -46 77 -53 77 -84 0 -26 5 -34 23 -39 24 -6 47 -43 47 -74
-1 -26 -25 -52 -57 -61 -26 -7 -28 -11 -28 -62 l0 -54 49 1 c36 1 51 6 59 19
10 18 10 85 1 160 -3 22 5 85 16 140 34 159 43 139 -100 212 -139 70 -178 77
-260 44z"/>
<path d="M3956 4186 c-57 -21 -105 -64 -140 -126 -71 -125 -19 -292 112 -356
29 -15 69 -20 177 -24 140 -5 141 -5 180 -37 22 -17 51 -43 64 -57 38 -40 49
-34 48 28 -1 30 -5 52 -8 50 -4 -2 -10 8 -13 23 -6 21 -1 33 27 62 57 59 80
115 79 193 0 93 -36 158 -118 213 l-59 40 -155 3 c-115 1 -165 -2 -194 -12z
m248 -153 c4 -9 2 -21 -3 -26 -7 -7 -7 -15 0 -23 5 -7 9 -39 7 -71 -3 -55 -4
-58 -31 -61 l-28 -3 2 93 c1 51 3 96 6 101 8 13 41 7 47 -10z m-166 -45 c2
-16 7 -28 12 -28 5 0 10 12 12 28 3 23 8 27 33 27 l30 0 3 -82 3 -83 -36 0
c-30 0 -35 3 -35 24 0 35 -18 42 -22 9 -2 -23 -8 -29 -35 -31 l-33 -3 0 79 c0
43 3 82 7 86 4 4 19 6 33 4 19 -2 26 -10 28 -30z m258 -15 c-3 -21 -6 -46 -6
-55 0 -12 -8 -18 -24 -18 -21 0 -26 7 -34 47 -6 26 -8 51 -6 55 3 4 21 8 41 8
36 0 36 0 29 -37z m-11 -108 c0 -21 -31 -33 -46 -18 -5 5 -7 17 -3 27 9 24 49
17 49 -9z"/>
<path d="M1225 4100 c-8 -13 4 -32 16 -25 12 8 12 35 0 35 -6 0 -13 -4 -16
-10z"/>
<path d="M1318 4035 c-4 -4 -4 -23 -2 -43 3 -29 2 -33 -5 -17 -9 19 -10 19
-10 -2 -1 -18 5 -23 24 -23 14 0 25 6 24 13 -1 24 -25 78 -31 72z"/>
<path d="M7145 3985 c-143 -26 -154 -30 -166 -63 -18 -46 16 -236 57 -329 14
-31 34 -45 34 -23 0 6 13 10 29 10 23 0 30 5 33 22 2 14 29 42 73 75 l70 53
84 0 84 0 -6 -75 c-5 -75 -5 -75 20 -75 13 0 33 -10 44 -22 18 -22 18 -22 19
-2 0 11 4 24 9 30 14 15 51 173 58 245 7 86 0 114 -34 127 -28 10 -260 53
-278 51 -6 -1 -64 -11 -130 -24z"/>
<path d="M4910 3958 c-14 -5 -48 -10 -76 -9 -35 1 -55 -3 -63 -13 -7 -9 -36
-19 -63 -22 -53 -7 -94 -34 -117 -78 -8 -14 -21 -26 -28 -26 -8 0 -26 -12 -40
-26 -23 -23 -25 -31 -19 -79 4 -41 2 -56 -9 -65 -12 -10 -15 -30 -11 -96 5
-94 13 -114 53 -134 15 -8 42 -25 60 -38 20 -15 52 -25 87 -29 l56 -6 1 29 1
29 10 -27 c14 -39 32 -36 24 3 -3 17 -6 35 -6 40 0 14 -30 10 -31 -3 0 -7 -7
1 -14 17 -9 19 -14 24 -15 13 0 -10 -6 -18 -12 -19 -7 0 -4 -4 7 -9 18 -8 18
-9 -6 -9 -36 -1 -41 8 -18 32 10 11 19 31 19 44 0 27 28 42 41 22 5 -9 3 -16
-9 -21 -14 -7 -14 -7 3 -5 28 3 34 47 7 47 -20 0 -36 25 -26 41 3 5 13 8 22 8
15 -1 15 -2 0 -6 -26 -6 -22 -23 5 -23 30 -1 56 -40 63 -97 4 -36 3 -44 -5
-33 -9 12 -11 10 -11 -12 0 -16 4 -28 8 -28 5 0 10 -43 11 -95 1 -82 -1 -95
-15 -95 -13 0 -15 8 -10 48 8 58 -7 91 -23 50 -5 -15 -7 -42 -4 -61 4 -26 1
-36 -12 -41 -9 -3 -21 -4 -26 -1 -11 7 0 -25 15 -44 6 -8 26 -20 44 -28 29
-12 32 -17 32 -56 0 -24 -5 -48 -11 -54 -18 -18 -1 -55 24 -51 23 3 24 8 11
96 -5 38 -4 42 15 42 19 0 21 -6 23 -112 l3 -113 104 -5 c56 -3 108 -2 113 1
11 7 4 140 -13 227 -11 53 -32 104 -43 103 -22 -3 -26 3 -26 42 0 23 3 58 6
77 5 32 11 37 47 47 151 41 167 51 167 103 0 14 12 42 26 61 29 39 28 87 -3
121 -12 13 -16 32 -14 63 3 49 -10 81 -37 89 -10 4 -24 22 -31 42 -14 40 -62
74 -103 74 -18 0 -29 7 -33 21 -11 33 -84 55 -125 37z m-50 -410 c0 -18 -4
-28 -8 -22 -4 6 -15 13 -25 17 -10 4 -15 11 -12 17 4 6 10 8 15 5 5 -3 11 -1
15 5 11 17 15 11 15 -22z m-73 6 c-3 -3 -12 -4 -19 -1 -8 3 -5 6 6 6 11 1 17
-2 13 -5z m51 -71 c3 -51 -4 -53 -17 -5 -6 20 -5 34 2 41 6 6 11 11 12 11 0 0
1 -21 3 -47z m-155 0 c-8 -48 -13 -57 -24 -46 -8 8 -6 20 5 42 20 38 25 39 19
4z m178 -144 c-1 -84 -4 -155 -6 -158 -3 -2 -5 69 -5 159 0 90 3 161 6 158 3
-4 5 -75 5 -159z m-23 -39 c2 -78 -1 -120 -8 -120 -6 0 -10 44 -10 120 0 66 3
120 8 120 4 0 8 -54 10 -120z"/>
<path d="M6294 3935 c-4 -14 -4 -29 -1 -32 9 -9 139 -43 164 -43 20 0 23 -5
23 -35 0 -34 -1 -35 -40 -35 l-40 0 0 -65 0 -65 38 -2 c88 -4 169 5 236 28
l48 17 -5 101 c-3 55 -6 102 -6 104 -1 1 -7 2 -15 2 -8 0 -17 12 -20 26 -6 21
-11 25 -29 19 -146 -44 -168 -47 -241 -29 -39 9 -75 20 -80 25 -16 15 -25 10
-32 -16z"/>
<path d="M8370 3860 c0 -5 7 -10 16 -10 8 0 12 5 9 10 -3 6 -10 10 -16 10 -5
0 -9 -4 -9 -10z"/>
<path d="M8530 3860 c0 -5 7 -10 15 -10 8 0 15 5 15 10 0 6 -7 10 -15 10 -8 0
-15 -4 -15 -10z"/>
<path d="M8462 3773 c-16 -29 -15 -33 8 -33 22 0 23 4 11 35 -8 19 -8 19 -19
-2z"/>
<path d="M1143 3662 c-14 -9 -37 -292 -25 -304 4 -4 99 -8 211 -10 l204 -3 -6
115 c-4 63 -10 136 -13 163 l-7 47 -176 0 c-97 0 -181 -4 -188 -8z m187 -57
c0 -8 5 -26 12 -40 10 -21 18 -25 57 -25 l46 0 -38 -27 c-29 -21 -37 -32 -33
-48 4 -11 9 -31 13 -44 l6 -25 -31 22 c-38 27 -38 27 -79 -4 -19 -14 -37 -24
-39 -21 -3 3 -1 22 5 44 14 49 14 63 -1 63 -14 0 -48 30 -48 42 0 4 20 8 43 8
42 0 44 1 56 40 11 38 31 47 31 15z"/>
<path d="M7202 3654 c4 -21 22 -23 26 -1 2 10 -3 17 -13 17 -10 0 -15 -6 -13
-16z"/>
<path d="M7330 3650 c0 -15 5 -20 18 -18 9 2 17 10 17 18 0 8 -8 16 -17 18
-13 2 -18 -3 -18 -18z"/>
<path d="M7280 3541 c0 -5 -3 -16 -6 -25 -4 -11 -1 -16 10 -16 18 0 22 35 6
45 -5 3 -10 2 -10 -4z"/>
<path d="M8514 3512 c-48 -3 -51 -4 -46 -27 6 -32 -26 -40 -123 -32 -63 6 -74
4 -94 -14 -20 -19 -21 -28 -19 -127 l3 -107 70 -3 c39 -2 143 -1 233 3 l162 7
0 98 c0 115 -3 126 -41 145 -15 8 -30 23 -34 34 -6 21 -36 27 -111 23z m-46
-143 c2 -14 -7 -18 -48 -20 -32 -3 -55 1 -62 8 -17 21 -1 30 54 29 41 -1 53
-5 56 -17z m-5 -58 c18 -18 -9 -30 -60 -27 -48 2 -60 10 -45 28 13 16 89 15
105 -1z"/>
<path d="M7488 3469 c-10 -5 -30 -9 -45 -7 -24 3 -28 -1 -34 -37 -17 -102 -19
-165 -5 -165 12 0 36 -40 36 -59 0 -5 -72 -9 -160 -10 -101 -1 -160 2 -160 8
0 22 24 61 38 61 11 0 13 9 9 38 -3 20 -9 65 -13 100 l-7 63 -29 -6 c-18 -4
-35 -2 -44 6 -13 10 -17 10 -25 -2 -20 -31 -6 -103 36 -194 16 -32 16 -35 -5
-63 -21 -28 -21 -32 -7 -60 8 -17 12 -42 10 -56 -3 -15 -1 -26 5 -26 7 0 9
-17 5 -50 l-6 -50 144 -1 c79 -1 168 -3 197 -5 l52 -4 0 55 c0 34 4 55 11 55
7 0 9 10 5 25 -4 14 -1 35 5 46 13 24 5 61 -16 83 -14 14 -13 20 9 65 30 58
41 116 32 166 -7 37 -11 40 -38 24z m-148 -419 c0 -5 -4 -10 -10 -10 -5 0 -10
5 -10 10 0 6 5 10 10 10 6 0 10 -4 10 -10z"/>
<path d="M9089 3076 c-159 -57 -257 -228 -219 -386 17 -69 79 -161 135 -200
l46 -32 -7 -96 c-3 -54 -10 -101 -15 -107 -13 -14 -11 -25 5 -25 8 0 36 21 63
48 93 91 165 147 229 180 80 40 133 92 169 167 24 48 29 71 29 134 0 133 -70
244 -189 301 -53 25 -75 30 -136 30 -41 -1 -90 -7 -110 -14z m179 -299 l3 -87
-26 0 c-25 0 -25 0 -24 83 1 78 10 101 34 94 6 -2 11 -43 13 -90z m-146 36 c4
-34 22 -33 26 2 3 19 9 25 28 25 23 0 24 -2 24 -75 0 -73 -1 -75 -24 -75 -18
0 -26 6 -28 22 -5 32 -28 35 -28 4 0 -21 -5 -26 -25 -26 -24 0 -25 2 -25 75 0
73 1 75 24 75 19 0 25 -6 28 -27z m222 -61 c-6 -61 -10 -72 -25 -72 -14 0 -19
7 -19 29 0 15 -3 49 -6 74 -6 42 -5 46 17 49 13 2 27 1 32 -2 4 -4 4 -39 1
-78z"/>
<path d="M2436 2879 c-10 -6 -54 -13 -99 -15 -57 -2 -85 -8 -98 -20 -18 -16
-19 -16 -19 1 0 17 -2 17 -20 -2 -18 -20 -19 -29 -11 -115 10 -102 33 -174 52
-162 8 4 10 26 5 65 -7 74 5 88 72 84 27 -1 58 -7 69 -13 11 -6 24 -8 28 -4 3
4 13 -2 21 -12 12 -18 16 -18 40 -5 16 8 55 14 93 14 l66 0 -3 -82 c-2 -80 -2
-83 22 -89 14 -3 29 -3 34 0 14 8 23 73 28 196 5 102 4 106 -19 129 -14 12
-42 27 -64 32 -53 12 -174 11 -197 -2z m-226 -85 c0 -8 -4 -12 -10 -9 -5 3
-10 13 -10 21 0 8 5 12 10 9 6 -3 10 -13 10 -21z m27 -86 c-3 -8 -6 -5 -6 6
-1 11 2 17 5 13 3 -3 4 -12 1 -19z"/>
<path d="M5696 2849 c-2 -8 -7 -31 -10 -52 -4 -34 -3 -38 12 -32 9 4 38 10 63
12 87 10 199 -64 246 -162 17 -36 10 -64 -9 -32 -40 72 -137 137 -204 137 -72
0 -116 -21 -182 -88 -35 -35 -66 -61 -70 -57 -8 7 32 85 59 114 11 12 18 21
17 22 -2 0 -16 2 -32 4 -16 2 -34 9 -39 14 -31 31 -53 -5 -87 -143 -26 -109
-20 -162 22 -198 18 -16 35 -28 39 -28 4 0 7 -14 7 -30 -1 -17 7 -39 17 -50
21 -23 85 -43 110 -34 13 5 16 2 13 -12 -2 -10 3 -24 12 -31 12 -10 9 -12 -20
-13 -39 0 -52 -7 -67 -33 -19 -36 -5 -62 40 -75 114 -32 137 -27 137 27 0 31
17 16 22 -19 3 -24 6 -25 59 -23 79 2 129 25 129 57 0 26 -31 66 -50 66 -5 0
-10 10 -10 23 0 18 10 26 50 40 52 19 77 51 67 87 -3 11 6 21 25 29 52 23 71
104 48 196 -38 144 -45 160 -93 207 -70 70 -96 81 -214 86 -82 4 -104 2 -107
-9z m-36 -295 c0 -2 -7 -4 -15 -4 -8 0 -15 4 -15 10 0 5 7 7 15 4 8 -4 15 -8
15 -10z m50 -14 c0 -5 -7 -10 -15 -10 -8 0 -15 -8 -15 -17 0 -14 2 -15 9 -4 6
9 11 10 15 2 4 -6 3 -11 -2 -11 -5 0 -12 -9 -15 -20 -4 -16 0 -20 18 -20 13 0
27 5 31 11 5 8 8 8 14 0 4 -7 7 5 8 25 1 20 4 39 7 42 3 3 4 -35 4 -84 -1 -66
-3 -81 -10 -59 -7 25 -7 24 -3 -10 18 -146 19 -185 4 -181 -8 3 -30 7 -47 11
-31 6 -33 10 -34 48 -1 23 -3 34 -6 24 -8 -30 -23 -8 -22 31 1 23 3 29 6 15 6
-33 20 -28 20 7 0 22 -4 29 -14 26 -7 -3 -20 6 -29 19 -9 14 -22 25 -29 25 -7
0 -16 7 -19 16 -9 23 -7 36 4 29 5 -3 7 0 4 8 -3 8 6 18 22 26 33 15 46 5 19
-16 -19 -14 -19 -14 10 -11 26 3 30 7 31 33 0 17 1 36 2 43 2 14 32 17 32 2z
m-60 -10 c0 -5 -4 -10 -10 -10 -5 0 -10 5 -10 10 0 6 5 10 10 10 6 0 10 -4 10
-10z m100 -25 c0 -9 -6 -12 -15 -9 -8 4 -12 10 -9 15 8 14 24 10 24 -6z m3
-322 c-7 -2 -19 -2 -25 0 -7 3 -2 5 12 5 14 0 19 -2 13 -5z"/>
<path d="M5740 2296 c0 -8 5 -18 10 -21 6 -3 10 1 10 9 0 8 -4 18 -10 21 -5 3
-10 -1 -10 -9z"/>
<path d="M5588 2811 c-24 -24 -23 -31 7 -31 20 0 25 5 25 25 0 29 -8 31 -32 6z"/>
<path d="M3803 2771 c-98 -36 -171 -103 -203 -186 -8 -19 -10 -59 -6 -110 5
-59 3 -90 -7 -115 -17 -40 -40 -170 -33 -177 3 -3 51 13 108 36 100 40 104 40
144 26 190 -66 413 24 469 190 48 139 -50 290 -219 340 -69 21 -189 19 -253
-4z m257 -135 c0 -8 -9 -24 -19 -37 -15 -18 -22 -21 -31 -13 -9 9 -8 18 5 38
18 28 45 35 45 12z m-215 -62 c24 -18 28 -101 6 -127 -18 -22 -88 -22 -113 0
-28 25 -25 107 4 127 28 20 77 20 103 0z m90 -64 c0 -74 0 -75 -27 -78 l-28
-3 0 81 0 81 28 -3 c27 -3 27 -4 27 -78z m237 25 c-2 -22 -8 -45 -13 -52 -6
-7 -6 -13 0 -17 15 -10 0 -46 -19 -46 -21 0 -33 23 -19 37 6 6 6 20 -1 37 -5
15 -10 41 -10 57 0 28 2 30 33 27 31 -3 32 -4 29 -43z m-106 25 c23 0 24 -3
24 -65 l0 -65 -60 0 c-67 0 -80 12 -80 74 0 46 24 70 63 62 16 -3 40 -6 53 -6z"/>
<path d="M3778 2524 c-3 -3 -4 -14 -1 -25 8 -28 33 -24 33 6 0 23 -18 34 -32
19z"/>
<path d="M4000 2495 c0 -9 5 -15 11 -13 6 2 11 8 11 13 0 5 -5 11 -11 13 -6 2
-11 -4 -11 -13z"/>
<path d="M2280 2606 c0 -26 41 -66 68 -66 33 0 45 8 61 38 16 31 46 28 71 -8
17 -24 29 -30 59 -30 41 0 54 10 70 53 l11 27 -170 0 c-137 0 -170 -3 -170
-14z"/>
<path d="M2437 2504 c-3 -16 0 -28 9 -31 23 -9 33 6 21 32 -15 32 -23 32 -30
-1z"/>
<path d="M2457 2381 c-6 -25 3 -37 33 -44 44 -11 70 2 70 34 0 33 0 33 -33 18
-18 -8 -30 -8 -45 0 -16 9 -21 7 -25 -8z"/>
<path d="M2614 2386 c-3 -8 -4 -25 -2 -38 2 -17 8 -22 23 -20 26 5 32 11 40
45 7 25 5 27 -24 27 -18 0 -34 -6 -37 -14z"/>
<path d="M2243 2375 c0 -8 4 -12 8 -9 4 2 10 -2 12 -8 3 -7 6 -3 6 10 1 12 -5
22 -12 22 -8 0 -14 -7 -14 -15z"/>
<path d="M2340 2374 c0 -12 7 -25 16 -28 23 -9 34 -7 34 4 0 6 -7 10 -15 10
-7 0 -19 8 -24 18 -9 15 -10 15 -11 -4z"/>
<path d="M2410 2380 c0 -5 -8 -6 -17 -3 -17 6 -17 6 0 -11 10 -10 21 -15 24
-12 11 11 12 36 2 36 -5 0 -9 -4 -9 -10z"/>
<path d="M3142 2351 c-19 -5 -39 -14 -45 -20 -6 -6 -37 -11 -68 -11 -32 0 -61
-4 -64 -10 -3 -5 -14 -10 -24 -10 -9 0 -34 -17 -54 -38 -28 -28 -39 -51 -47
-91 -21 -112 -8 -386 27 -531 8 -36 16 -85 18 -110 2 -25 6 -61 8 -80 2 -19
-2 -49 -10 -67 -11 -28 -11 -33 1 -33 7 0 19 7 26 15 17 20 60 15 60 -7 0 -29
14 -20 33 23 14 28 24 38 35 35 18 -5 229 -20 275 -19 22 0 27 -4 27 -24 0
-34 20 -25 47 22 61 109 110 515 84 700 -13 90 -55 185 -89 200 -12 5 -22 13
-22 17 0 27 -156 54 -218 39z m176 -341 c19 -25 22 -38 16 -80 -6 -49 -6 -50
19 -50 30 0 57 -33 57 -68 0 -12 -11 -34 -24 -47 -20 -20 -31 -23 -55 -19 -27
6 -31 4 -31 -14 0 -12 -5 -55 -11 -95 l-11 -74 -100 -7 c-55 -4 -108 -12 -117
-18 -13 -8 -23 -8 -37 0 -18 11 -18 11 4 12 26 0 27 13 11 124 -11 74 -12 75
-38 70 -36 -7 -71 27 -71 69 0 42 10 56 46 66 16 5 28 14 26 21 -2 8 9 10 38
6 22 -3 57 -9 79 -12 52 -7 77 20 114 129 11 29 60 22 85 -13z m-322 -476 c-3
-9 -6 -20 -6 -25 0 -5 -10 -8 -22 -8 -17 1 -19 2 -5 6 9 2 17 13 17 24 0 10 5
19 11 19 6 0 8 -7 5 -16z m101 -19 c-9 -8 -22 -15 -29 -15 -7 0 -2 9 12 20 28
21 40 19 17 -5z m56 18 c-7 -2 -19 -2 -25 0 -7 3 -2 5 12 5 14 0 19 -2 13 -5z
m7 -22 c0 -6 -9 -9 -20 -8 -11 1 -20 5 -20 9 0 4 9 8 20 8 11 0 20 -4 20 -9z
m-117 -8 c-7 -2 -19 -2 -25 0 -7 3 -2 5 12 5 14 0 19 -2 13 -5z m-83 -23 c0
-16 -39 -55 -46 -47 -8 8 23 57 36 57 6 0 10 -5 10 -10z"/>
<path d="M3227 1934 c-3 -3 -3 -12 0 -20 4 -11 9 -12 19 -3 8 6 11 15 8 20 -6
10 -18 12 -27 3z"/>
<path d="M3160 1800 c-13 -23 -1 -39 28 -40 15 0 15 2 -2 35 l-14 27 -12 -22z"/>
<path d="M8637 2253 c-14 -13 -6 -33 13 -33 22 0 23 1 14 24 -7 17 -16 20 -27
9z"/>
<path d="M8465 2241 c-7 -12 12 -24 25 -16 11 7 4 25 -10 25 -5 0 -11 -4 -15
-9z"/>
<path d="M9320 2207 c-79 -42 -100 -70 -100 -137 0 -34 19 -70 38 -70 4 0 5
-42 3 -92 -6 -171 31 -250 121 -252 42 -1 42 -1 49 39 8 49 -3 65 -46 65 -19
0 -39 8 -50 20 -15 17 -16 24 -5 50 7 17 17 33 21 36 15 9 10 -24 -5 -39 -12
-12 -12 -18 -3 -30 15 -19 97 -34 97 -18 0 6 -18 11 -39 11 -41 0 -61 14 -43
32 7 7 18 4 35 -7 26 -16 47 -14 47 6 0 6 -9 7 -20 4 -22 -7 -26 5 -8 23 17
17 41 15 34 -3 -3 -9 0 -18 7 -21 7 -2 14 -16 15 -30 3 -35 12 -49 22 -33 5 7
4 23 -1 36 -7 19 -5 23 12 23 17 0 20 -6 19 -37 -3 -62 -1 -71 10 -53 7 10 10
-15 10 -81 l0 -96 -94 -1 c-103 0 -116 -4 -116 -32 0 -14 9 -21 38 -25 20 -3
59 -10 85 -15 27 -6 59 -10 72 -10 32 0 62 -47 46 -72 -15 -24 -14 -71 1 -86
10 -10 10 -17 0 -32 -8 -13 -8 -21 -1 -25 8 -5 84 1 122 11 4 1 9 2 12 3 3 0
1 10 -4 20 -8 14 -7 22 2 29 19 16 40 -2 32 -27 -5 -16 -3 -20 9 -15 9 3 16
16 16 28 3 148 6 190 18 194 15 5 16 34 0 50 -7 7 -27 12 -46 12 -27 0 -33 3
-28 16 3 9 6 26 6 38 0 17 9 26 38 35 73 24 104 104 101 257 -1 70 1 85 21
112 73 98 -91 263 -179 181 -20 -19 -34 -22 -103 -20 -132 3 -164 -5 -217 -58
-25 -25 -57 -61 -70 -79 -13 -18 -26 -30 -29 -28 -2 3 10 25 28 49 28 39 59
69 119 114 14 11 14 13 -4 27 -25 19 -62 20 -95 3z m220 -254 c0 -5 -34 -8
-75 -9 -41 0 -69 3 -63 8 16 10 138 11 138 1z m-114 -36 c5 -15 85 -10 96 6 4
6 11 8 15 3 4 -5 2 -11 -5 -13 -7 -3 -19 -11 -27 -19 -9 -9 -16 -11 -20 -3 -4
5 -17 9 -28 8 -28 -3 -67 10 -67 22 0 14 30 11 36 -4z m111 -79 c-2 -13 -4 -3
-4 22 0 25 2 35 4 23 2 -13 2 -33 0 -45z m-127 43 c0 -13 -29 -35 -37 -28 -7
8 15 37 28 37 5 0 9 -4 9 -9z m96 -25 c19 -20 18 -26 -6 -26 -13 0 -20 7 -20
20 0 24 6 25 26 6z m31 -93 c-3 -10 -5 -2 -5 17 0 19 2 27 5 18 2 -10 2 -26 0
-35z m201 -336 c4 -20 -25 -34 -40 -19 -15 15 -1 44 19 40 10 -2 19 -11 21
-21z m-70 -60 c4 -20 -25 -34 -40 -19 -15 15 -1 44 19 40 10 -2 19 -11 21 -21z"/>
<path d="M8554 2165 c-4 -8 -4 -24 -1 -34 3 -14 1 -18 -9 -14 -8 3 -14 0 -14
-6 0 -6 6 -11 13 -11 6 0 22 -3 35 -6 26 -7 30 15 10 59 -15 30 -26 34 -34 12z"/>
<path d="M2264 2061 c-10 -16 -21 -28 -25 -25 -4 2 -5 -4 -2 -14 2 -10 -3 -46
-11 -79 -9 -34 -16 -75 -16 -92 l0 -31 79 0 c91 0 86 -6 97 119 7 70 8 72 33
69 26 -3 26 -3 26 -99 l0 -95 120 0 120 1 3 30 c5 37 -23 150 -49 204 l-19 41
-85 0 -84 0 -3 -32 c-2 -23 -9 -34 -22 -36 -22 -5 -38 16 -30 41 4 14 -1 17
-33 17 -21 0 -48 3 -59 6 -17 4 -26 -1 -40 -25z"/>
<path d="M5764 2029 c-3 -6 -1 -15 7 -19 10 -7 10 -11 0 -24 -10 -12 -11 -20
-2 -29 7 -10 7 -17 0 -24 -13 -13 -4 -33 16 -33 14 0 27 24 18 34 -9 9 -11 76
-1 82 12 7 0 24 -17 24 -8 0 -17 -5 -21 -11z"/>
<path d="M8566 1801 c-3 -4 -4 -31 -2 -59 4 -72 -4 -80 -48 -47 -20 15 -36 31
-36 36 0 5 -6 9 -14 9 -7 0 -28 14 -45 31 -55 52 -61 39 -61 -124 l0 -144 174
-7 c95 -4 190 -4 210 -1 l36 7 1 102 c2 138 0 186 -7 197 -7 11 -201 12 -208
0z m179 -151 c0 -11 -14 -16 -52 -18 -48 -3 -53 -1 -53 18 0 19 5 21 53 18 38
-2 52 -7 52 -18z"/>
<path d="M9520 1643 c-3 -40 -1 -68 3 -64 4 4 7 37 5 72 l-3 64 -5 -72z"/>
<path d="M9420 1630 c0 -5 5 -10 10 -10 6 0 10 5 10 10 0 6 -4 10 -10 10 -5 0
-10 -4 -10 -10z"/>
</g>
</svg>
